<?xml version="1.0" standalone="no"?><svg xmlns="http://www.w3.org/2000/svg" viewBox="0 0 1440 320"><path fill="#4700CB" fill-opacity="1" d="M0,96L26.7,90.7C53.3,85,107,75,160,74.7C213.3,75,267,85,320,80C373.3,75,427,53,480,53.3C533.3,53,587,75,640,117.3C693.3,160,747,224,800,218.7C853.3,213,907,139,960,128C1013.3,117,1067,171,1120,192C1173.3,213,1227,203,1280,181.3C1333.3,160,1387,128,1413,112L1440,96L1440,0L1413.3,0C1386.7,0,1333,0,1280,0C1226.7,0,1173,0,1120,0C1066.7,0,1013,0,960,0C906.7,0,853,0,800,0C746.7,0,693,0,640,0C586.7,0,533,0,480,0C426.7,0,373,0,320,0C266.7,0,213,0,160,0C106.7,0,53,0,27,0L0,0Z"></path></svg>